<?xml version="1.0" encoding="UTF-8"?>
<!-- Generated by Pixelmator Pro 3.4.3 -->
<svg width="942" height="799" viewBox="0 0 942 799" xmlns="http://www.w3.org/2000/svg">
    <g id="bluedark2">
        <path id="bodyfill" fill="#f0ece9" stroke="none" d="M 514.289978 789.992004 C 441.007996 789.992004 367.765991 784.992004 367.765991 784.992004 C 274.966003 784.992004 199.037994 709.065002 199.037994 616.264038 L 199.037994 580.993042 C 199.037994 554.244995 197.037994 531.537964 216.098999 507.067993 C 197.037994 482.890991 197.037994 464.578003 197.037994 443.247986 C 197.037994 291.098999 340.181 211.065002 514.289978 211.065002 C 688.398987 211.065002 829.541992 291.098999 829.541992 443.247986 C 829.541992 464.578003 831.541992 482.890991 812.481018 507.067993 C 831.541992 531.53894 829.541992 554.246033 829.541992 580.993042 L 829.541992 616.264038 C 829.541992 709.064026 753.61499 784.992004 660.814026 784.992004 C 660.814026 784.992004 587.572021 789.992004 514.289978 789.992004 L 514.289978 789.992004 Z"/>
        <path id="shadowbody" fill="#ffffff" stroke="none" d="M 685.502991 774.765015 C 742.547974 723.970032 772.221008 691.330994 775.791016 615.265015 C 779.361023 539.198975 772.984009 518.439941 772.984009 518.439941 C 772.984009 518.439941 793.682007 514.022949 800.046997 507.075989 C 815.445007 519.880981 823.111023 543.852051 823.182983 597.702026 C 823.297974 682.669006 805.705994 718.662048 752.872986 751.505005 C 700.039978 784.347046 685.502991 774.765991 685.502991 774.765991 L 685.502991 774.765991 Z"/>
        <linearGradient id="linearGradient1" x1="196.07" y1="368.873" x2="829.441" y2="368.873" gradientUnits="userSpaceOnUse">
            <stop offset="0.139" stop-color="#fae397" stop-opacity="1"/>
            <stop offset="0.239" stop-color="#f7d6a5" stop-opacity="1"/>
            <stop offset="0.385" stop-color="#f4cab3" stop-opacity="1"/>
            <stop offset="0.566" stop-color="#f2c4bb" stop-opacity="1"/>
            <stop offset="0.887" stop-color="#f2c2be" stop-opacity="1"/>
        </linearGradient>
        <path id="hair" fill="url(#linearGradient1)" stroke="none" d="M 829.440979 445.035004 C 829.440979 290.037994 684.47699 213.08197 514.289978 213.08197 C 344.102997 213.08197 196.070007 296.602997 196.070007 445.324982 C 213.802002 534.785034 304.377014 564.077026 372.514008 450.944 C 404.653992 522.227051 493.356995 496.830994 523.646973 451.109985 C 562.133972 526.743042 655.72699 494.845978 683.731018 451.411987 C 688.351013 505.582977 803.630005 576.017029 829.440979 445.035004 L 829.440979 445.035004 Z"/>
        <linearGradient id="linearGradient2" x1="441.992" y1="352.746" x2="825.604" y2="352.746" gradientUnits="userSpaceOnUse">
            <stop offset="1e-05" stop-color="#f4cbb3" stop-opacity="1"/>
            <stop offset="1" stop-color="#ffffff" stop-opacity="1"/>
        </linearGradient>
        <path id="flarehair" fill="url(#linearGradient2)" stroke="none" opacity="0.7" d="M 450.641998 265.080017 C 525.848999 259.38501 663.085022 243.697998 746.731995 359.569977 C 782.572021 409.21698 775.812012 460.667999 775.812012 460.667999 C 775.812012 460.667999 816.625 444.484985 812.713013 496.759003 C 816.382019 491.483978 851.633972 415.973999 787.093018 320.28598 C 725.495972 228.961975 590.16803 192.825989 441.992004 215.150024 L 450.640991 265.080017 L 450.641998 265.080017 Z"/>
        <linearGradient id="linearGradient3" x1="195.886" y1="392.024" x2="807.862" y2="392.024" gradientUnits="userSpaceOnUse">
            <stop offset="0.404" stop-color="#debd67" stop-opacity="1"/>
            <stop offset="0.509" stop-color="#e2b881" stop-opacity="1"/>
            <stop offset="0.648" stop-color="#eab2aa" stop-opacity="1"/>
        </linearGradient>
        <path id="blikhair" fill="url(#linearGradient3)" stroke="none" d="M 196.070007 445.324982 C 213.802002 534.785034 304.377014 564.077026 372.514008 450.944 C 404.653992 522.227051 493.356995 496.830994 523.646973 451.109985 C 562.133972 526.743042 655.72699 494.845978 683.731018 451.411987 C 687.502014 493.740997 755.289978 545.710999 800.046997 507.074982 C 800.046997 507.074982 806.640015 502.431 807.862 499.019989 C 779.58197 505.566986 729.726013 506.798004 688.169983 443.281982 C 672.724976 460.598999 598.47699 508.806976 528.101013 441.877991 C 497.593994 476.063995 429.019012 488.373993 376.457001 439.537994 C 322.102997 511.908966 263.302002 509.398987 240.238998 480.671997 C 216.759003 451.425995 220.617004 354.098999 328.562012 259.384033 C 317.72699 260.041016 272.605988 280.603027 236.016998 329.470001 C 215.434998 356.958984 193.653 391.869995 196.070999 445.324005 L 196.070999 445.324005 Z"/>
        <path id="bodystroke" fill="#5a5a5a" stroke="none" d="M 513.804016 799 C 457.428009 799 401.223999 797.991028 367.174988 795.975037 L 367.174988 795.975037 C 319.761993 793.166016 275.040985 773.67804 241.251999 741.101013 C 206.292007 707.395996 187.039001 663.061035 187.039001 616.265015 L 187.039001 580.994019 C 187.039001 555.890991 187.039001 532.072021 203.684998 507.181976 C 187.464005 484.414978 184.039001 465.559998 184.039001 443.247986 C 184.039001 368.013 218.367004 305.266998 283.311005 261.791016 C 341.808014 222.630981 423.838013 201.065002 514.289978 201.065002 C 604.742004 201.065002 686.771973 222.630981 745.268982 261.791016 C 810.213013 305.266998 844.541016 368.013 844.541016 443.247986 C 844.541016 465.559998 841.116028 484.414978 824.89502 507.181976 C 841.539978 532.072021 841.541016 555.890991 841.541016 580.994019 L 841.541016 616.265015 C 841.541016 662.911011 822.047974 707.281006 786.653015 741.199036 C 753.119995 773.334045 707.465027 793.299011 661.393005 795.976013 C 626.698975 797.992004 570.164001 799 513.802002 799 L 513.804016 799 Z M 368.356995 776.01001 C 435.901001 780.01001 591.385986 780.011047 660.234985 776.01001 C 701.630981 773.605042 742.666016 755.653992 772.817017 726.759033 C 804.237976 696.650024 821.54303 657.40802 821.54303 616.265991 L 821.54303 580.994995 C 821.54303 555.283997 821.54303 534.974976 804.593018 513.215942 L 799.776978 507.03299 L 804.630005 500.878998 C 821.369995 479.645996 824.544006 464.243988 824.544006 443.25 C 824.544006 375.000977 793.284973 318.001984 734.145996 278.413025 C 678.905029 241.434021 600.827026 221.067993 514.291992 221.067993 C 427.756989 221.067993 349.678986 241.434021 294.437988 278.413025 C 235.298996 318.001984 204.041 375.001984 204.041 443.25 C 204.041 464.243988 207.214996 479.645996 223.955002 500.878998 L 228.807999 507.03299 L 223.992004 513.215942 C 207.042007 534.975952 207.042007 555.283997 207.042007 580.994995 L 207.042007 616.265991 C 207.042007 657.580994 224.121994 696.80304 255.136002 726.704041 C 285.492004 755.971008 325.708008 773.481995 368.360992 776.011047 L 368.356995 776.011047 Z"/>
        <g id="eyes">
            <path id="path1" fill="#5a5a5a" stroke="none" d="M 446.316986 580.402039 C 446.316986 589.955994 438.57196 597.70105 429.018005 597.70105 C 419.46402 597.70105 411.718994 589.955994 411.718994 580.402039 C 411.718994 570.848022 419.46402 563.103027 429.018005 563.103027 C 438.57196 563.103027 446.316986 570.848022 446.316986 580.402039 Z"/>
            <path id="path2" fill="#5a5a5a" stroke="none" d="M 615.775024 580.402039 C 615.775024 589.955994 608.029968 597.70105 598.476013 597.70105 C 588.921997 597.70105 581.177002 589.955994 581.177002 580.402039 C 581.177002 570.848022 588.921997 563.103027 598.476013 563.103027 C 608.029968 563.103027 615.775024 570.848022 615.775024 580.402039 Z"/>
        </g>
        <path id="smile" fill="#5a5a5a" stroke="none" d="M 513.280029 628.077026 C 493.338989 628.077026 476.11499 613.348022 476.11499 599.439026 C 476.11499 595.235046 480.372986 594.847046 483.11499 594.847046 C 485.539001 594.847046 489.200012 595.235046 490.11499 598.439026 C 492.700012 607.488037 501.058014 615.506042 513.280029 615.506042 C 525.502014 615.506042 534.153015 607.56604 536.445007 598.439026 C 537.127991 595.718994 540.80603 594.847046 543.445007 594.847046 C 546.176025 594.847046 550.684021 594.853027 550.445007 599.439026 C 549.734009 613.098999 533.221008 628.077026 513.280029 628.077026 Z"/>
    </g>
</svg>
