<?xml version="1.0" encoding="UTF-8"?>
<!-- Generated by Pixelmator Pro 3.4.3 -->
<svg width="661" height="598" viewBox="0 0 661 598" xmlns="http://www.w3.org/2000/svg">
    <g id="bluedark2">
        <path id="bodyfill" fill="#f0ece9" stroke="none" d="M 330.289978 588.992004 C 257.007996 588.992004 183.765991 583.992004 183.765991 583.992004 C 90.966003 583.992004 15.037994 508.064972 15.037994 415.264038 L 15.037994 379.993042 C 15.037994 353.244995 13.037994 330.537994 32.098999 306.067993 C 13.037994 281.890991 13.037994 263.578003 13.037994 242.247986 C 13.037994 90.098999 156.181 10.065002 330.289978 10.065002 C 504.398987 10.065002 645.541992 90.098999 645.541992 242.247986 C 645.541992 263.578003 647.541992 281.890991 628.481018 306.067993 C 647.541992 330.538971 645.541992 353.246033 645.541992 379.993042 L 645.541992 415.264038 C 645.541992 508.063995 569.61499 583.992004 476.814026 583.992004 C 476.814026 583.992004 403.572021 588.992004 330.289978 588.992004 L 330.289978 588.992004 Z"/>
        <path id="shadowbody" fill="#ffffff" stroke="none" d="M 501.502991 573.765015 C 558.547974 522.970032 588.221008 490.330963 591.791016 414.265015 C 595.361023 338.199005 588.984009 317.439972 588.984009 317.439972 C 588.984009 317.439972 609.682007 313.02298 616.046997 306.075989 C 631.445007 318.881012 639.111023 342.852051 639.182983 396.702026 C 639.297974 481.668976 621.705994 517.662048 568.872986 550.505005 C 516.039978 583.347046 501.502991 573.765991 501.502991 573.765991 L 501.502991 573.765991 Z"/>
        <linearGradient id="linearGradient1" x1="12.07" y1="167.873" x2="645.441" y2="167.873" gradientUnits="userSpaceOnUse">
            <stop offset="0.139" stop-color="#fae397" stop-opacity="1"/>
            <stop offset="0.239" stop-color="#f7d6a5" stop-opacity="1"/>
            <stop offset="0.385" stop-color="#f4cab3" stop-opacity="1"/>
            <stop offset="0.566" stop-color="#f2c4bb" stop-opacity="1"/>
            <stop offset="0.887" stop-color="#f2c2be" stop-opacity="1"/>
        </linearGradient>
        <path id="hair" fill="url(#linearGradient1)" stroke="none" d="M 645.440979 244.035004 C 645.440979 89.037994 500.47699 12.08197 330.289978 12.08197 C 160.102997 12.08197 12.070007 95.602997 12.070007 244.324982 C 29.802002 333.785004 120.377014 363.077026 188.514008 249.944 C 220.653992 321.22702 309.356995 295.830994 339.646973 250.109985 C 378.133972 325.743011 471.72699 293.845978 499.731018 250.411987 C 504.351013 304.582977 619.630005 375.017029 645.440979 244.035004 L 645.440979 244.035004 Z"/>
        <linearGradient id="linearGradient2" x1="257.992" y1="151.746" x2="641.604" y2="151.746" gradientUnits="userSpaceOnUse">
            <stop offset="1e-05" stop-color="#f4cbb3" stop-opacity="1"/>
            <stop offset="1" stop-color="#ffffff" stop-opacity="1"/>
        </linearGradient>
        <path id="flarehair" fill="url(#linearGradient2)" stroke="none" opacity="0.7" d="M 266.641998 64.080017 C 341.848999 58.38501 479.085022 42.697998 562.731995 158.569977 C 598.572021 208.21698 591.812012 259.667999 591.812012 259.667999 C 591.812012 259.667999 632.625 243.484985 628.713013 295.759003 C 632.382019 290.483978 667.633972 214.973999 603.093018 119.28598 C 541.495972 27.961975 406.16803 -8.174011 257.992004 14.150024 L 266.640991 64.080017 L 266.641998 64.080017 Z"/>
        <linearGradient id="linearGradient3" x1="11.886" y1="191.024" x2="623.862" y2="191.024" gradientUnits="userSpaceOnUse">
            <stop offset="0.404" stop-color="#debd67" stop-opacity="1"/>
            <stop offset="0.509" stop-color="#e2b881" stop-opacity="1"/>
            <stop offset="0.648" stop-color="#eab2aa" stop-opacity="1"/>
        </linearGradient>
        <path id="blikhair" fill="url(#linearGradient3)" stroke="none" d="M 12.070007 244.324982 C 29.802002 333.785004 120.377014 363.077026 188.514008 249.944 C 220.653992 321.22702 309.356995 295.830994 339.646973 250.109985 C 378.133972 325.743011 471.72699 293.845978 499.731018 250.411987 C 503.502014 292.740997 571.289978 344.710999 616.046997 306.074982 C 616.046997 306.074982 622.640015 301.431 623.862 298.019989 C 595.58197 304.566986 545.726013 305.798004 504.169983 242.281982 C 488.724976 259.598999 414.47699 307.806976 344.101013 240.877991 C 313.593994 275.063995 245.019012 287.373993 192.457001 238.537994 C 138.102997 310.908966 79.302002 308.398987 56.238998 279.671997 C 32.759003 250.425995 36.617004 153.098999 144.562012 58.384033 C 133.72699 59.041016 88.605988 79.603027 52.016998 128.470001 C 31.434998 155.958984 9.653 190.869995 12.070999 244.324005 L 12.070999 244.324005 Z"/>
        <path id="bodystroke" fill="#5a5a5a" stroke="none" d="M 329.804016 598 C 273.428009 598 217.223999 596.991028 183.174988 594.975037 L 183.174988 594.975037 C 135.761993 592.166016 91.040985 572.67804 57.251999 540.101013 C 22.292007 506.395966 3.039001 462.061035 3.039001 415.265015 L 3.039001 379.994019 C 3.039001 354.890991 3.039001 331.071991 19.684998 306.181976 C 3.464005 283.414978 0.039001 264.559998 0.039001 242.247986 C 0.039001 167.013 34.367004 104.266998 99.311005 60.791016 C 157.808014 21.630981 239.838013 0.065002 330.289978 0.065002 C 420.742004 0.065002 502.771973 21.630981 561.268982 60.791016 C 626.213013 104.266998 660.541016 167.013 660.541016 242.247986 C 660.541016 264.559998 657.116028 283.414978 640.89502 306.181976 C 657.539978 331.071991 657.541016 354.890991 657.541016 379.994019 L 657.541016 415.265015 C 657.541016 461.911011 638.047974 506.280975 602.653015 540.199036 C 569.119995 572.334045 523.465027 592.299011 477.393005 594.976013 C 442.698975 596.992004 386.164001 598 329.802002 598 L 329.804016 598 Z M 184.356995 575.01001 C 251.901001 579.01001 407.385986 579.011047 476.234985 575.01001 C 517.630981 572.605042 558.666016 554.653992 588.817017 525.759033 C 620.237976 495.649994 637.54303 456.40802 637.54303 415.265991 L 637.54303 379.994995 C 637.54303 354.283997 637.54303 333.975006 620.593018 312.215973 L 615.776978 306.03299 L 620.630005 299.878998 C 637.369995 278.645996 640.544006 263.243988 640.544006 242.25 C 640.544006 174.000977 609.284973 117.001984 550.145996 77.413025 C 494.905029 40.434021 416.827026 20.067993 330.291992 20.067993 C 243.756989 20.067993 165.678986 40.434021 110.437988 77.413025 C 51.298996 117.001984 20.041 174.001984 20.041 242.25 C 20.041 263.243988 23.214996 278.645996 39.955002 299.878998 L 44.807999 306.03299 L 39.992004 312.215973 C 23.042007 333.975983 23.042007 354.283997 23.042007 379.994995 L 23.042007 415.265991 C 23.042007 456.580994 40.121994 495.803009 71.136002 525.704041 C 101.492004 554.971008 141.708008 572.481995 184.360992 575.011047 L 184.356995 575.011047 Z"/>
        <g id="eyes">
            <path id="path1" fill="#5a5a5a" stroke="none" d="M 262.316986 379.402039 C 262.316986 388.955994 254.57196 396.70105 245.018005 396.70105 C 235.46402 396.70105 227.718994 388.955994 227.718994 379.402039 C 227.718994 369.848022 235.46402 362.103027 245.018005 362.103027 C 254.57196 362.103027 262.316986 369.848022 262.316986 379.402039 Z"/>
            <path id="path2" fill="#5a5a5a" stroke="none" d="M 431.775024 379.402039 C 431.775024 388.955994 424.029968 396.70105 414.476013 396.70105 C 404.921997 396.70105 397.177002 388.955994 397.177002 379.402039 C 397.177002 369.848022 404.921997 362.103027 414.476013 362.103027 C 424.029968 362.103027 431.775024 369.848022 431.775024 379.402039 Z"/>
        </g>
        <path id="smile" fill="#5a5a5a" stroke="none" d="M 329.280029 427.077026 C 309.338989 427.077026 292.11499 412.348022 292.11499 398.439026 C 292.11499 394.235046 296.372986 393.847046 299.11499 393.847046 C 301.539001 393.847046 305.200012 394.235046 306.11499 397.439026 C 308.700012 406.488037 317.058014 414.506042 329.280029 414.506042 C 341.502014 414.506042 350.153015 406.56604 352.445007 397.439026 C 353.127991 394.718994 356.80603 393.847046 359.445007 393.847046 C 362.176025 393.847046 366.684021 393.853027 366.445007 398.439026 C 365.734009 412.098999 349.221008 427.077026 329.280029 427.077026 Z"/>
    </g>
</svg>
