<?xml version="1.0" encoding="UTF-8"?>
<!-- Generated by Pixelmator Pro 3.4.3 -->
<svg width="942" height="598" viewBox="0 0 942 598" xmlns="http://www.w3.org/2000/svg">
    <g id="bluedark2">
        <path id="bodyfill" fill="#f0ece9" stroke="none" d="M 514.289978 588.992004 C 441.007996 588.992004 367.765991 583.992004 367.765991 583.992004 C 274.966003 583.992004 199.037994 508.064972 199.037994 415.264038 L 199.037994 379.993042 C 199.037994 353.244995 197.037994 330.537994 216.098999 306.067993 C 197.037994 281.890991 197.037994 263.578003 197.037994 242.247986 C 197.037994 90.098999 340.181 10.065002 514.289978 10.065002 C 688.398987 10.065002 829.541992 90.098999 829.541992 242.247986 C 829.541992 263.578003 831.541992 281.890991 812.481018 306.067993 C 831.541992 330.538971 829.541992 353.246033 829.541992 379.993042 L 829.541992 415.264038 C 829.541992 508.063995 753.61499 583.992004 660.814026 583.992004 C 660.814026 583.992004 587.572021 588.992004 514.289978 588.992004 L 514.289978 588.992004 Z"/>
        <path id="shadowbody" fill="#ffffff" stroke="none" d="M 685.502991 573.765015 C 742.547974 522.970032 772.221008 490.330963 775.791016 414.265015 C 779.361023 338.199005 772.984009 317.439972 772.984009 317.439972 C 772.984009 317.439972 793.682007 313.02298 800.046997 306.075989 C 815.445007 318.881012 823.111023 342.852051 823.182983 396.702026 C 823.297974 481.668976 805.705994 517.662048 752.872986 550.505005 C 700.039978 583.347046 685.502991 573.765991 685.502991 573.765991 L 685.502991 573.765991 Z"/>
        <linearGradient id="linearGradient1" x1="196.07" y1="167.873" x2="829.441" y2="167.873" gradientUnits="userSpaceOnUse">
            <stop offset="0.139" stop-color="#fae397" stop-opacity="1"/>
            <stop offset="0.239" stop-color="#f7d6a5" stop-opacity="1"/>
            <stop offset="0.385" stop-color="#f4cab3" stop-opacity="1"/>
            <stop offset="0.566" stop-color="#f2c4bb" stop-opacity="1"/>
            <stop offset="0.887" stop-color="#f2c2be" stop-opacity="1"/>
        </linearGradient>
        <path id="hair" fill="url(#linearGradient1)" stroke="none" d="M 829.440979 244.035004 C 829.440979 89.037994 684.47699 12.08197 514.289978 12.08197 C 344.102997 12.08197 196.070007 95.602997 196.070007 244.324982 C 213.802002 333.785004 304.377014 363.077026 372.514008 249.944 C 404.653992 321.22702 493.356995 295.830994 523.646973 250.109985 C 562.133972 325.743011 655.72699 293.845978 683.731018 250.411987 C 688.351013 304.582977 803.630005 375.017029 829.440979 244.035004 L 829.440979 244.035004 Z"/>
        <linearGradient id="linearGradient2" x1="441.992" y1="151.746" x2="825.604" y2="151.746" gradientUnits="userSpaceOnUse">
            <stop offset="1e-05" stop-color="#f4cbb3" stop-opacity="1"/>
            <stop offset="1" stop-color="#ffffff" stop-opacity="1"/>
        </linearGradient>
        <path id="flarehair" fill="url(#linearGradient2)" stroke="none" opacity="0.7" d="M 450.641998 64.080017 C 525.848999 58.38501 663.085022 42.697998 746.731995 158.569977 C 782.572021 208.21698 775.812012 259.667999 775.812012 259.667999 C 775.812012 259.667999 816.625 243.484985 812.713013 295.759003 C 816.382019 290.483978 851.633972 214.973999 787.093018 119.28598 C 725.495972 27.961975 590.16803 -8.174011 441.992004 14.150024 L 450.640991 64.080017 L 450.641998 64.080017 Z"/>
        <linearGradient id="linearGradient3" x1="195.886" y1="191.024" x2="807.862" y2="191.024" gradientUnits="userSpaceOnUse">
            <stop offset="0.404" stop-color="#debd67" stop-opacity="1"/>
            <stop offset="0.509" stop-color="#e2b881" stop-opacity="1"/>
            <stop offset="0.648" stop-color="#eab2aa" stop-opacity="1"/>
        </linearGradient>
        <path id="blikhair" fill="url(#linearGradient3)" stroke="none" d="M 196.070007 244.324982 C 213.802002 333.785004 304.377014 363.077026 372.514008 249.944 C 404.653992 321.22702 493.356995 295.830994 523.646973 250.109985 C 562.133972 325.743011 655.72699 293.845978 683.731018 250.411987 C 687.502014 292.740997 755.289978 344.710999 800.046997 306.074982 C 800.046997 306.074982 806.640015 301.431 807.862 298.019989 C 779.58197 304.566986 729.726013 305.798004 688.169983 242.281982 C 672.724976 259.598999 598.47699 307.806976 528.101013 240.877991 C 497.593994 275.063995 429.019012 287.373993 376.457001 238.537994 C 322.102997 310.908966 263.302002 308.398987 240.238998 279.671997 C 216.759003 250.425995 220.617004 153.098999 328.562012 58.384033 C 317.72699 59.041016 272.605988 79.603027 236.016998 128.470001 C 215.434998 155.958984 193.653 190.869995 196.070999 244.324005 L 196.070999 244.324005 Z"/>
        <path id="bodystroke" fill="#5a5a5a" stroke="none" d="M 513.804016 598 C 457.428009 598 401.223999 596.991028 367.174988 594.975037 L 367.174988 594.975037 C 319.761993 592.166016 275.040985 572.67804 241.251999 540.101013 C 206.292007 506.395966 187.039001 462.061035 187.039001 415.265015 L 187.039001 379.994019 C 187.039001 354.890991 187.039001 331.071991 203.684998 306.181976 C 187.464005 283.414978 184.039001 264.559998 184.039001 242.247986 C 184.039001 167.013 218.367004 104.266998 283.311005 60.791016 C 341.808014 21.630981 423.838013 0.065002 514.289978 0.065002 C 604.742004 0.065002 686.771973 21.630981 745.268982 60.791016 C 810.213013 104.266998 844.541016 167.013 844.541016 242.247986 C 844.541016 264.559998 841.116028 283.414978 824.89502 306.181976 C 841.539978 331.071991 841.541016 354.890991 841.541016 379.994019 L 841.541016 415.265015 C 841.541016 461.911011 822.047974 506.280975 786.653015 540.199036 C 753.119995 572.334045 707.465027 592.299011 661.393005 594.976013 C 626.698975 596.992004 570.164001 598 513.802002 598 L 513.804016 598 Z M 368.356995 575.01001 C 435.901001 579.01001 591.385986 579.011047 660.234985 575.01001 C 701.630981 572.605042 742.666016 554.653992 772.817017 525.759033 C 804.237976 495.649994 821.54303 456.40802 821.54303 415.265991 L 821.54303 379.994995 C 821.54303 354.283997 821.54303 333.975006 804.593018 312.215973 L 799.776978 306.03299 L 804.630005 299.878998 C 821.369995 278.645996 824.544006 263.243988 824.544006 242.25 C 824.544006 174.000977 793.284973 117.001984 734.145996 77.413025 C 678.905029 40.434021 600.827026 20.067993 514.291992 20.067993 C 427.756989 20.067993 349.678986 40.434021 294.437988 77.413025 C 235.298996 117.001984 204.041 174.001984 204.041 242.25 C 204.041 263.243988 207.214996 278.645996 223.955002 299.878998 L 228.807999 306.03299 L 223.992004 312.215973 C 207.042007 333.975983 207.042007 354.283997 207.042007 379.994995 L 207.042007 415.265991 C 207.042007 456.580994 224.121994 495.803009 255.136002 525.704041 C 285.492004 554.971008 325.708008 572.481995 368.360992 575.011047 L 368.356995 575.011047 Z"/>
        <g id="eyes">
            <path id="path1" fill="#5a5a5a" stroke="none" d="M 446.316986 379.402039 C 446.316986 388.955994 438.57196 396.70105 429.018005 396.70105 C 419.46402 396.70105 411.718994 388.955994 411.718994 379.402039 C 411.718994 369.848022 419.46402 362.103027 429.018005 362.103027 C 438.57196 362.103027 446.316986 369.848022 446.316986 379.402039 Z"/>
            <path id="path2" fill="#5a5a5a" stroke="none" d="M 615.775024 379.402039 C 615.775024 388.955994 608.029968 396.70105 598.476013 396.70105 C 588.921997 396.70105 581.177002 388.955994 581.177002 379.402039 C 581.177002 369.848022 588.921997 362.103027 598.476013 362.103027 C 608.029968 362.103027 615.775024 369.848022 615.775024 379.402039 Z"/>
        </g>
        <path id="smile" fill="#5a5a5a" stroke="none" d="M 513.280029 427.077026 C 493.338989 427.077026 476.11499 412.348022 476.11499 398.439026 C 476.11499 394.235046 480.372986 393.847046 483.11499 393.847046 C 485.539001 393.847046 489.200012 394.235046 490.11499 397.439026 C 492.700012 406.488037 501.058014 414.506042 513.280029 414.506042 C 525.502014 414.506042 534.153015 406.56604 536.445007 397.439026 C 537.127991 394.718994 540.80603 393.847046 543.445007 393.847046 C 546.176025 393.847046 550.684021 393.853027 550.445007 398.439026 C 549.734009 412.098999 533.221008 427.077026 513.280029 427.077026 Z"/>
    </g>
</svg>
